<svg xmlns="http://www.w3.org/2000/svg" width="87" height="87" viewBox="0 0 24 24" fill="none" xmlns:v="https://vecta.io/nano"><style><![CDATA[.B{opacity:.5}.C{opacity:.75}.D{stroke-miterlimit:10}.E{stroke-linecap:round}.F{stroke-linejoin:round}]]></style><use href="#v" fill="url(#A)"/><use href="#w" fill="url(#B)"/><use href="#x" fill="url(#C)"/><path d="M8.32 19.714c.44-.166 1.189-.531 1.977-1.326.886-.886 1.623-3.4.171-4.846-1.417-1.417-3.903-1.131-5.097.063-.429.428-.886 1.074-1.069 1.668.257-.229.64-.514.96-.549.166-.017.297.04.389.154l.091.114-.16.097c-.017.011-1.411.863-1.886 1.731.326-.166.771-.349.954-.2l.103.086-.12.12c-.497.486-.526.983-.549 1.56-.04.829-.086 1.76-1.491 2.84.48.063 1.571.034 2.606-1.263.514-.652 1.109-.926 1.131-.937L6.4 19l.051.029c.097.057.143.183.126.349-.023.229-.171.554-.491.886.354-.046.909-.177 1.303-.571.646-.646 1.091-1.583 1.097-1.594l.126-.269.12.211c.309.549-.034 1.217-.411 1.674z" fill="url(#D)" class="B"/><path d="M2.463 20.069c.394-.32.8-.948.794-1.303-.006-.326.086-.783.309-1.04-.983.417-.846 1.074-.72 1.4.057.143-.017.566-.383.943z" fill="url(#E)"/><path d="M3.223 21.035c1.863-.611 2.36-2.726 3.554-3.091 1.2-.366.897.777.434 1.297 0 0 1.583-1.589 1.589-2.829.011-1.24 1.674.697 1.16 1.703 0 0 2.543-2.543.509-4.571s-4.737-.006-4.737-.006 1.543-.063 1.406 1.057c0 0-1.189.451-2.126 1.2 0 0 .457.051.771.52 0 0-1.4.966-1.343 1.794.08 1.069-.617 2.732-1.217 2.926z" fill="url(#F)"/><path d="M4.526 19.429c.869-.217 1.634-2.251 2.857-2.137.674.063.52.646.52.646s.469-.669.577-1.566 1.783-.594 1.709 1.097c0 0 1.84-2.394-.394-3.92-2.463-1.68-4.269.428-4.269.428s1.686-.56 1.949.777c0 0-1.394.388-1.909.903 0 0 .594.086.737.72 0 0-1.371 1.006-1.331 1.406.097.954-.446 1.646-.446 1.646z" fill="url(#G)"/><use href="#v" fill="url(#H)" class="B"/><use href="#v" fill="url(#I)" class="B"/><path d="M9.623 18.817c1.303-1.389 2.04-3.869.68-5.229s-3.863-.217-4.971.806c0 0 .886-.371 1.583.074s-1.297 1.217-1.714 2.44c0 0 1.777-1.069 2.337-.617s-.006 1.874-.543 2.411c0 0 1.274-.651 1.96-1.491 1.046-1.286.669 1.606.669 1.606z" fill="url(#J)"/><use href="#v" fill="url(#K)" class="B"/><use href="#w" fill="url(#L)" class="B"/><path d="M3.891 21.811c.36-.04.886-.777 1.789-.914 0 0-.737 1.074-1.789.914z" fill="url(#M)"/><use href="#x" fill="url(#N)" class="B"/><use href="#v" fill="url(#O)" class="B"/><use href="#v" opacity=".25" fill="url(#P)"/><use href="#v" fill="url(#Q)" class="C"/><use href="#y" fill="url(#R)"/><path d="M11.84 18.726s-.006-1.063-.286-2.126l.543-.52c.166.366.491 1.189.571 2.097l-.829.549z" fill="url(#S)"/><use href="#y" fill="url(#T)" class="C"/><path d="M15.674 12.794c.137-.4.309-.8.52-1.183l.12-.217-.086-.051-3.114 2.04-.189 1.337c.709-.291 1.714-.886 2.749-1.926z" fill="url(#U)"/><use href="#z" fill="url(#V)"/><path d="M4.868 11.703a11.49 11.49 0 0 0 2.32.514l.52-.56a8.56 8.56 0 0 0-2.32-.811 8.99 8.99 0 0 0-.52.857z" fill="url(#W)"/><use href="#z" fill="url(#X)" class="C"/><path d="M12.017 7.611c-.48.366-1.983 1.817-2.509 3.229l.857-.051a14.08 14.08 0 0 1 1.863-2.983l-.211-.194z" fill="url(#Y)"/><path d="M12.537 7.332c.509.829 1.183 1.651 1.931 2.383l.109.103a12.25 12.25 0 0 0 2.017 1.571l.189-.183c1.8-1.8 2.846-3.154 3.743-4.874A6.91 6.91 0 0 0 17.594 3.4c-1.72.897-3.069 1.937-4.874 3.743l-.183.189z" fill="url(#Z)"/><path d="M20.52 6.332c1.217-2.337 1.063-3.594.863-3.794s-1.451-.354-3.794.863a6.91 6.91 0 0 1 2.931 2.931z" fill="url(#a)"/><use href="#AA" fill="url(#b)"/><use href="#AA" fill="url(#c)" class="C"/><path d="M14.577 9.817l-.109-.103c-.748-.731-1.423-1.554-1.931-2.383l-.109.12c1.04 1.966 4.217 3.84 1.794 4.829-1.588.651-2.303 1.423-2.686 2.109.16.12.286.183.343.183 1.451-.634 3.183-1.697 4.72-3.183a12.05 12.05 0 0 1-2.023-1.571z" fill="url(#d)" class="B"/><use href="#AB" fill="url(#e)"/><use href="#AB" fill="url(#f)"/><path d="M20.274 6.789c.011-.017.24-.44.246-.457A6.91 6.91 0 0 0 17.589 3.4c-.017.011-.034.017-.051.029 1.217.691 2.594 2.246 2.737 3.36z" fill="url(#g)"/><use href="#AC" fill="url(#h)" class="C"/><use href="#AD" fill="url(#i)"/><use href="#AE" fill="url(#j)"/><path d="M9.48 15.503s.446-.806.406-1.069l-.469.463c-.223.56-.6 1.206-.6 1.206l.663-.6z" fill="url(#k)"/><path d="M12.554 13.046c.251-.766.817-1.623 1.543-2.554l-.149-.137c-.754.897-1.343 1.731-1.691 2.394 0 0-1.566 1.709-3.434 3.348l.274.269c1.937-1.566 3.457-3.32 3.457-3.32z" fill="url(#l)"/><use href="#AD" fill="url(#i)"/><use href="#AE" fill="url(#m)" class="C"/><use href="#AC" fill="url(#n)" class="C"/><g opacity=".16" stroke="#000" stroke-width=".5" class="D E F"><path opacity=".16" d="M17.297 10.692c-.754-.446-1.537-1.051-2.28-1.789a11.54 11.54 0 0 1-1.789-2.28m6.309-.005l.474.623"/><path opacity=".026" d="M18.611 4.035l-.223.166c-1.497 1.12-2.766 2.246-4.566 4.046l-.36.371"/><path opacity=".16" d="M16.503 10.172c1.583-1.611 2.594-2.834 3.549-4.309l.109-.171"/></g><path d="M11.469 14.166c1.314-.766 2.943-1.943 4.469-3.434z" fill="url(#o)" class="C"/><path d="M17.36 7.486c-.731.674-1.817.68-2.423.011s-.497-1.76.234-2.434 1.817-.68 2.423-.011.497 1.76-.234 2.434z" fill="url(#p)"/><path d="M17.046 7.109c-.6.554-1.491.56-1.989.011s-.412-1.446.194-2c.6-.554 1.491-.56 1.989-.011.492.549.406 1.446-.194 2z" fill="url(#q)"/><use href="#AF" fill="url(#r)"/><use href="#AF" fill="url(#s)" class="B"/><path d="M16.971 5.543c.2.223.309.503.331.794.126-.406.057-.846-.229-1.16-.44-.491-1.234-.486-1.772.011l-.149.16c.611-.371 1.366-.303 1.817.194z" fill="#000" class="B"/><path d="M17.074 5.178c-.44-.491-1.234-.486-1.772.011s-.611 1.291-.171 1.783c.046.051.091.086.063.063-.394-.394-.274-1.206.234-1.714.411-.411 1.2-.56 1.646-.143z" fill="url(#t)"/><path d="M17.074 5.177c-.446-.423-1.24-.269-1.646.137-.486.486-.617 1.251-.286 1.663.051.029.074.08.046.057-.017-.017-.034-.034-.046-.057.423.486 1.217.48 1.754-.017.543-.497.623-1.291.177-1.783z" fill="url(#u)" class="B"/><path d="M20.531 6.314a6.87 6.87 0 0 0-2.92-2.926m-1.017 8.001a12.49 12.49 0 0 1-2.017-1.571l-.109-.103c-.748-.731-1.423-1.554-1.931-2.383" stroke="#008ee6" stroke-width=".75" class="D E F"/><defs><linearGradient id="A" x1="10.259" y1="12.687" x2="1.16" y2="24.7" href="#AG"><stop stop-color="red"/><stop offset=".232" stop-color="#ff1500"/><stop offset=".737" stop-color="#ff3d00"/><stop offset=".999" stop-color="#ff4c00"/></linearGradient><linearGradient id="B" x1="8.511" y1="11.557" x2="-.478" y2="23.425" href="#AG"><stop stop-color="red"/><stop offset=".232" stop-color="#ff1500"/><stop offset=".737" stop-color="#ff3d00"/><stop offset=".999" stop-color="#ff4c00"/></linearGradient><linearGradient id="C" x1="11.078" y1="13.05" x2="1.857" y2="25.224" href="#AG"><stop stop-color="red"/><stop offset=".232" stop-color="#ff1500"/><stop offset=".737" stop-color="#ff3d00"/><stop offset=".999" stop-color="#ff4c00"/></linearGradient><linearGradient id="D" x1="8.456" y1="14.57" x2="2.596" y2="26.745" href="#AG"><stop stop-color="#ff8000"/><stop offset=".639" stop-color="#ff5b00"/><stop offset=".999" stop-color="#ff4c00"/></linearGradient><radialGradient id="E" cx="0" cy="0" r="1" gradientTransform="translate(0.0871973 20.9423) rotate(-135) scale(4.72606 6.00135)" href="#AG"><stop offset=".001" stop-color="#ffed1c" stop-opacity=".6"/><stop offset=".948" stop-color="#ffed1c" stop-opacity=".026"/><stop offset=".991" stop-color="#ffed1c" stop-opacity="0"/></radialGradient><linearGradient id="F" x1="3.704" y1="21.823" x2="8.992" y2="14.24" href="#AG"><stop stop-color="#ff8000"/><stop offset=".023" stop-color="#fe7f02" stop-opacity=".977"/><stop offset=".666" stop-color="#ed582a" stop-opacity=".334"/><stop offset="1" stop-color="#e74939" stop-opacity="0"/></linearGradient><linearGradient id="G" x1="9.779" y1="13.98" x2="4.997" y2="18.264" href="#AG"><stop stop-color="#ffbc47"/><stop offset=".187" stop-color="#ffb137" stop-opacity=".813"/><stop offset=".722" stop-color="#ff940f" stop-opacity=".278"/><stop offset="1" stop-color="#ff8900" stop-opacity="0"/></linearGradient><radialGradient id="H" cx="0" cy="0" r="1" gradientTransform="matrix(-2.5850904681364635,-2.585090468136464,2.6645904835452674,-2.664590483545267,8.56496,15.249)" href="#AG"><stop offset=".001" stop-color="#ffbc47"/><stop offset=".294" stop-color="#ffbf4b" stop-opacity=".707"/><stop offset=".562" stop-color="#fec656" stop-opacity=".438"/><stop offset=".82" stop-color="#fcd368" stop-opacity=".18"/><stop offset="1" stop-color="#fbe07a" stop-opacity="0"/></radialGradient><radialGradient id="I" cx="0" cy="0" r="1" gradientTransform="matrix(-2.5054348892357985,-2.505434889235799,2.582481244113885,-2.5824812441138847,8.43003,15.384)" href="#AG"><stop offset=".001" stop-color="#fff"/><stop offset="1" stop-color="#fff" stop-opacity="0"/></radialGradient><radialGradient id="J" cx="0" cy="0" r="1" gradientTransform="translate(10.1423 15.869) rotate(-135) scale(4.35259 6.43605)" href="#AG"><stop offset=".001" stop-color="#ffed1c" stop-opacity=".6"/><stop offset=".948" stop-color="#ffed1c" stop-opacity=".026"/><stop offset=".991" stop-color="#ffed1c" stop-opacity="0"/></radialGradient><radialGradient id="K" cx="0" cy="0" r="1" gradientTransform="matrix(1.2830005846728971,-1.1850512234620936,0.7580921711156063,0.8207516093150388,8.48378,15.3551)" href="#AG"><stop offset=".001" stop-color="#fff"/><stop offset="1" stop-color="#fff" stop-opacity="0"/></radialGradient><radialGradient id="L" cx="0" cy="0" r="1" gradientTransform="matrix(-1.1041118834837345,-1.1041118834837347,1.4020442546688747,-1.4020442546688745,2.54239,20.1962)" href="#AG"><stop offset=".001" stop-color="#ffed1c"/><stop offset=".2" stop-color="#ffee2b" stop-opacity=".801"/><stop offset=".584" stop-color="#fff254" stop-opacity=".417"/><stop offset="1" stop-color="#fff686" stop-opacity="0"/></radialGradient><radialGradient id="M" cx="0" cy="0" r="1" gradientTransform="translate(5.06149 21.3239) rotate(162.598) scale(1.51008 0.305545)" href="#AG"><stop offset=".001" stop-color="#ffed1c" stop-opacity=".6"/><stop offset=".948" stop-color="#ffed1c" stop-opacity=".026"/><stop offset=".991" stop-color="#ffed1c" stop-opacity="0"/></radialGradient><radialGradient id="N" cx="0" cy="0" r="1" gradientTransform="matrix(1.0874492926729193,-0.9459385423298745,0.30054238868523886,0.3455030040207622,3.99226,22.0321)" href="#AG"><stop offset=".001" stop-color="#ffed1c"/><stop offset=".2" stop-color="#ffee2b" stop-opacity=".801"/><stop offset=".584" stop-color="#fff254" stop-opacity=".417"/><stop offset="1" stop-color="#fff686" stop-opacity="0"/></radialGradient><radialGradient id="O" cx="0" cy="0" r="1" gradientTransform="matrix(-3.4451585882292846,-3.445158588229285,4.374798944523051,-4.37479894452305,2.60771,20.6213)" href="#AG"><stop offset=".001" stop-color="#ff4c00"/><stop offset=".135" stop-color="#ff5b0c" stop-opacity=".866"/><stop offset=".394" stop-color="#ff842c" stop-opacity=".607"/><stop offset=".749" stop-color="#ffc45f" stop-opacity=".251"/><stop offset="1" stop-color="#fff686" stop-opacity="0"/></radialGradient><radialGradient id="P" cx="0" cy="0" r="1" gradientTransform="matrix(-1.8286347046909066,-1.8286347046909068,2.3220750298063155,-2.322075029806315,4.58504,15.5101)" href="#AG"><stop offset=".001" stop-color="#ffed1c"/><stop offset=".2" stop-color="#ffee2b" stop-opacity=".801"/><stop offset=".584" stop-color="#fff254" stop-opacity=".417"/><stop offset="1" stop-color="#fff686" stop-opacity="0"/></radialGradient><radialGradient id="Q" cx="0" cy="0" r="1" gradientTransform="matrix(-3.823899122368423,-3.8238991223684233,4.855744692814894,-4.855744692814893,8.4275,15.6293)" href="#AG"><stop offset=".001" stop-color="#ffed1c"/><stop offset=".2" stop-color="#ffee2b" stop-opacity=".801"/><stop offset=".584" stop-color="#fff254" stop-opacity=".417"/><stop offset="1" stop-color="#fff686" stop-opacity="0"/></radialGradient><linearGradient id="R" x1="9.804" y1="19.264" x2="15.664" y2="12.944" href="#AG"><stop stop-color="#bd2719"/><stop offset=".215" stop-color="#d41a10"/><stop offset=".505" stop-color="#ec0c07"/><stop offset=".774" stop-color="#fa0302"/><stop offset="1" stop-color="red"/></linearGradient><linearGradient id="S" x1="13.211" y1="16.303" x2="11.372" y2="18.109" href="#AG"><stop stop-color="#fc8d41"/><stop offset=".09" stop-color="#fc7837"/><stop offset=".294" stop-color="#fd4d24"/><stop offset=".492" stop-color="#fe2c14"/><stop offset=".68" stop-color="#ff1409"/><stop offset=".854" stop-color="#ff0502"/><stop offset="1" stop-color="red"/></linearGradient><radialGradient id="T" cx="0" cy="0" r="1" gradientTransform="matrix(5.606239546095048,5.606239546095047,-5.606239546095047,5.606239546095048,8.95846,18.4661)" href="#AG"><stop offset=".001" stop-color="#ffed1c"/><stop offset=".2" stop-color="#ffee2b" stop-opacity=".801"/><stop offset=".584" stop-color="#fff254" stop-opacity=".417"/><stop offset="1" stop-color="#fff686" stop-opacity="0"/></radialGradient><linearGradient id="U" x1="13.348" y1="14.3" x2="22.431" y2="3.772" href="#AG"><stop stop-color="#bd2719"/><stop offset=".215" stop-color="#d41a10"/><stop offset=".505" stop-color="#ec0c07"/><stop offset=".774" stop-color="#fa0302"/><stop offset="1" stop-color="red"/></linearGradient><linearGradient id="V" x1="4.166" y1="11.928" x2="9.7" y2="9.212" href="#AG"><stop stop-color="#bd2719"/><stop offset=".215" stop-color="#d41a10"/><stop offset=".505" stop-color="#ec0c07"/><stop offset=".774" stop-color="#fa0302"/><stop offset="1" stop-color="red"/></linearGradient><linearGradient id="W" x1="7.325" y1="10.324" x2="5.585" y2="12.393" href="#AG"><stop stop-color="#fc8d41"/><stop offset=".09" stop-color="#fc7837"/><stop offset=".294" stop-color="#fd4d24"/><stop offset=".492" stop-color="#fe2c14"/><stop offset=".68" stop-color="#ff1409"/><stop offset=".854" stop-color="#ff0502"/><stop offset="1" stop-color="red"/></linearGradient><radialGradient id="X" cx="0" cy="0" r="1" gradientTransform="matrix(6.03006520860264,6.030065208602639,-6.030065208602639,6.03006520860264,8.17058,15.3141)" href="#AG"><stop offset=".001" stop-color="#ffed1c"/><stop offset=".2" stop-color="#ffee2b" stop-opacity=".801"/><stop offset=".584" stop-color="#fff254" stop-opacity=".417"/><stop offset="1" stop-color="#fff686" stop-opacity="0"/></radialGradient><linearGradient id="Y" x1="11.819" y1="9.177" x2="2.893" y2="9.595" href="#AG"><stop stop-color="#bd2719"/><stop offset=".215" stop-color="#d41a10"/><stop offset=".505" stop-color="#ec0c07"/><stop offset=".774" stop-color="#fa0302"/><stop offset="1" stop-color="red"/></linearGradient><linearGradient id="Z" x1="15.048" y1="5.351" x2="18.64" y2="8.943" href="#AG"><stop stop-color="#bbcacc"/><stop offset=".372" stop-color="#fff"/><stop offset="1" stop-color="#99afb3"/></linearGradient><linearGradient id="a" x1="21.137" y1="5.108" x2="19.181" y2="2.57" href="#AG"><stop stop-color="#008ee6"/><stop offset=".688" stop-color="#80dafe"/><stop offset=".733" stop-color="#76d5fb"/><stop offset=".807" stop-color="#5cc8f3"/><stop offset=".903" stop-color="#32b2e6"/><stop offset="1" stop-color="#0099d6"/></linearGradient><linearGradient id="b" x1="14.257" y1="13.128" x2="10.175" y2="9.068" href="#AG"><stop stop-color="#008ee6"/><stop offset=".688" stop-color="#80dafe"/><stop offset=".733" stop-color="#76d5fb"/><stop offset=".807" stop-color="#5cc8f3"/><stop offset=".903" stop-color="#32b2e6"/><stop offset="1" stop-color="#0099d6"/></linearGradient><radialGradient id="c" cx="0" cy="0" r="1" gradientTransform="matrix(2.746388595992927,2.7463885959929266,-5.026687757166741,5.026687757166742,11.4855,14.4744)" href="#AG"><stop stop-opacity=".75"/><stop offset="1" stop-opacity="0"/></radialGradient><radialGradient id="d" cx="0" cy="0" r="1" gradientTransform="translate(16.0118 13.5594) rotate(45) scale(3.88398 7.10881)" href="#AG"><stop stop-opacity=".75"/><stop offset="1" stop-opacity="0"/></radialGradient><linearGradient id="e" x1="8.971" y1="12.028" x2="11.531" y2="15.39" href="#AG"><stop/><stop offset=".196" stop-color="#4d4d4c"/><stop offset=".766"/></linearGradient><linearGradient id="f" x1="8.971" y1="12.028" x2="11.531" y2="15.39" href="#AG"><stop stop-opacity="0"/><stop offset=".198" stop-color="#cfdcde" stop-opacity=".5"/><stop offset=".766" stop-opacity="0"/></linearGradient><linearGradient id="g" x1="14.333" y1="4.045" x2="20.205" y2="5.386" href="#AG"><stop stop-color="#bbcacc"/><stop offset=".372" stop-color="#fff"/><stop offset="1" stop-color="#99afb3"/></linearGradient><radialGradient id="h" cx="0" cy="0" r="1" gradientTransform="translate(16.076 11.4008) rotate(44.2342) scale(2.50596 8.11509)" href="#AG"><stop stop-color="#440063" stop-opacity=".75"/><stop offset="1" stop-color="#420061" stop-opacity="0"/></radialGradient><linearGradient id="i" x1="8.661" y1="15.857" x2="15.408" y2="11.506" href="#AG"><stop stop-color="#bd2719"/><stop offset=".215" stop-color="#d41a10"/><stop offset=".505" stop-color="#ec0c07"/><stop offset=".774" stop-color="#fa0302"/><stop offset="1" stop-color="red"/></linearGradient><linearGradient id="j" x1="7.565" y1="16.086" x2="11.044" y2="13.437" href="#AG"><stop stop-color="#bd2719"/><stop offset=".215" stop-color="#d41a10"/><stop offset=".505" stop-color="#ec0c07"/><stop offset=".774" stop-color="#fa0302"/><stop offset="1" stop-color="red"/></linearGradient><linearGradient id="k" x1="10.875" y1="13.856" x2="8.883" y2="15.716" href="#AG"><stop stop-color="#fc8d41"/><stop offset=".09" stop-color="#fc7837"/><stop offset=".294" stop-color="#fd4d24"/><stop offset=".492" stop-color="#fe2c14"/><stop offset=".68" stop-color="#ff1409"/><stop offset=".854" stop-color="#ff0502"/><stop offset="1" stop-color="red"/></linearGradient><linearGradient id="l" x1="10.809" y1="15.145" x2="13.17" y2="8.39" href="#AG"><stop stop-color="#bd2719"/><stop offset=".215" stop-color="#d41a10"/><stop offset=".505" stop-color="#ec0c07"/><stop offset=".774" stop-color="#fa0302"/><stop offset="1" stop-color="red"/></linearGradient><radialGradient id="m" cx="0" cy="0" r="1" gradientTransform="matrix(4.640356921057698,-3.76438317693509,1.2623564561061458,1.5561073999654178,8.60239,15.2652)" href="#AG"><stop offset=".001" stop-color="#ffed1c"/><stop offset=".2" stop-color="#ffee2b" stop-opacity=".801"/><stop offset=".584" stop-color="#fff254" stop-opacity=".417"/><stop offset="1" stop-color="#fff686" stop-opacity="0"/></radialGradient><radialGradient id="n" cx="0" cy="0" r="1" gradientTransform="matrix(1.7955061570050173,1.748139914811476,-5.661029202895282,5.814416055982476,14.3426,7.31489)" href="#AG"><stop stop-color="#fff" stop-opacity=".5"/><stop offset="1" stop-color="#fff" stop-opacity="0"/></radialGradient><radialGradient id="o" cx="0" cy="0" r="1" gradientTransform="translate(13.7872 13.0483) rotate(43.8644) scale(0.608449 2.92153)" href="#AG"><stop stop-color="#440063" stop-opacity=".75"/><stop offset="1" stop-color="#420061" stop-opacity="0"/></radialGradient><linearGradient id="p" x1="15.319" y1="8.311" x2="17.203" y2="4.254" href="#AG"><stop stop-color="#bd2719"/><stop offset=".215" stop-color="#d41a10"/><stop offset=".505" stop-color="#ec0c07"/><stop offset=".774" stop-color="#fa0302"/><stop offset="1" stop-color="red"/></linearGradient><linearGradient id="q" x1="16.662" y1="4.403" x2="15.636" y2="7.809" href="#AG"><stop stop-color="#fc8d41"/><stop offset=".09" stop-color="#fc7837"/><stop offset=".294" stop-color="#fd4d24"/><stop offset=".492" stop-color="#fe2c14"/><stop offset=".68" stop-color="#ff1409"/><stop offset=".854" stop-color="#ff0502"/><stop offset="1" stop-color="red"/></linearGradient><radialGradient id="r" cx="0" cy="0" r="1" gradientTransform="translate(15.6207 6.12733) rotate(44.996) scale(3.31364 3.31341)" href="#AG"><stop stop-color="#512d00"/><stop offset="1"/></radialGradient><radialGradient id="s" cx="0" cy="0" r="1" gradientTransform="matrix(2.90715,0,0,2.90715,16.2658,5.47137)" href="#AG"><stop offset=".487" stop-color="#f5cbc0" stop-opacity="0"/><stop offset="1" stop-color="#e67e62"/></radialGradient><linearGradient id="t" x1="15.997" y1="5.063" x2="16.12" y2="2.865" href="#AG"><stop stop-color="#bd2719"/><stop offset=".042" stop-color="#b42717"/><stop offset=".257" stop-color="#89250f"/><stop offset=".465" stop-color="#682408"/><stop offset=".663" stop-color="#502304"/><stop offset=".846" stop-color="#412201"/><stop offset="1" stop-color="#3c2200"/></linearGradient><radialGradient id="u" cx="0" cy="0" r="1" gradientTransform="translate(12.1646 4.75945) scale(3.94219)" href="#AG"><stop stop-color="#fff" stop-opacity=".5"/><stop offset="1" stop-color="#fff" stop-opacity="0"/></radialGradient><path id="v" d="M4.56 16.737c-1.337 1.297.417 2.686-2.274 4.571 0 0 1.583.531 3.017-1.274.491-.623 1.063-.88 1.063-.88.194.114.046.749-.646 1.269 0 0 1.08.029 1.754-.646s1.131-1.646 1.131-1.646c.463.811-.697 1.84-.697 1.84s1.091-.286 2.389-1.583c1.006-1.006 1.726-3.514.28-4.954s-4.023-1.183-5.286.086c-.554.554-1.12 1.417-1.194 2.126 0 0 1.063-1.149 1.44-.663 0 0-1.8 1.086-2.091 2.12.006 0 .903-.537 1.114-.366z"/><path id="w" d="M3.566 17.726c-1.4.56-.497 1.737-1.103 2.343 0 0 .806-.44.794-1.303-.011-.703.309-1.04.309-1.04z"/><path id="x" d="M3.891 21.812c.36-.04.966-1.086 1.789-.914 0 0-.737 1.074-1.789.914z"/><path id="y" d="M15.354 15.463c-.132-1.274.166-2.629.84-3.851l.211-.389-3.297 2.154-.274 1.983-1.286 1.234a10.18 10.18 0 0 1 .286 2.126c2.189-1.309 3.52-3.257 3.52-3.257z"/><path id="z" d="M12.097 7.829l-.08-.211a6.45 6.45 0 0 1-3.954.497s-1.977 1.297-3.194 3.594a11.49 11.49 0 0 0 2.32.514l1.217-1.309 1.966-.114c.44-.989.971-2.046 1.726-2.971z"/><path id="AA" d="M10.474 13.452c.646.646 1.24 1.12 1.4 1.12 1.451-.634 3.183-1.697 4.72-3.183a12.49 12.49 0 0 1-2.017-1.571l-.109-.103c-.748-.731-1.423-1.554-1.931-2.383-1.486 1.537-2.549 3.28-3.183 4.731.023.177.486.76 1.12 1.388z"/><path id="AB" d="M10.474 13.452c-.629-.629-1.091-1.211-1.12-1.389l-.891.394c-.103.103.48.863 1.314 1.691.829.829 1.589 1.417 1.691 1.314l.406-.891c-.16 0-.754-.474-1.4-1.12z"/><path id="AC" d="M21.383 2.537c-.2-.2-1.451-.354-3.794.863-1.72.897-3.068 1.937-4.874 3.743l-.183.189a16.5 16.5 0 0 0-3.183 4.731c.029.177.491.76 1.12 1.389.646.646 1.24 1.12 1.4 1.12 1.451-.634 3.183-1.697 4.72-3.183l.189-.183c1.8-1.8 2.846-3.154 3.743-4.874 1.223-2.337 1.069-3.594.863-3.794z"/><path id="AD" d="M9.091 16.366c1.92-1.549 3.423-3.274 3.463-3.32l-.297-.297s-1.566 1.709-3.434 3.349l.269.269z"/><path id="AE" d="M12.251 12.749c.349-.663.937-1.497 1.691-2.394-.017-.017-.034-.034-.057-.051L11.531 12.4l-.846 1.24-1.274 1.251c-.223.56-.6 1.206-.6 1.206 1.874-1.64 3.44-3.349 3.44-3.349z"/><path id="AF" d="M16.903 6.96c-.537.497-1.332.497-1.771.011-.44-.491-.366-1.286.171-1.783s1.332-.497 1.772-.011.366 1.286-.171 1.783z"/><linearGradient id="AG" gradientUnits="userSpaceOnUse"/></defs></svg>